<?xml version="1.0" encoding="utf-8"?>
<!-- Generator: Adobe Illustrator 27.4.1, SVG Export Plug-In . SVG Version: 6.00 Build 0)  -->
<svg version="1.1" id="Livello_1" xmlns="http://www.w3.org/2000/svg" xmlns:xlink="http://www.w3.org/1999/xlink" x="0px" y="0px"
	 viewBox="0 0 525 420" style="enable-background:new 0 0 525 420;" xml:space="preserve">
<style type="text/css">
	.st0{fill:#342E96;}
</style>
<g>
	<path class="st0" d="M35,420h455c9.3,0,18.2-3.7,24.8-10.2c6.6-6.6,10.2-15.5,10.2-24.8v-26.2c0-2.3-0.9-4.5-2.6-6.2
		s-3.9-2.6-6.2-2.6h-8.8V35c0-9.3-3.7-18.2-10.2-24.8C490.7,3.7,481.8,0,472.5,0h-420c-9.3,0-18.2,3.7-24.8,10.2
		C21.2,16.8,17.5,25.7,17.5,35v315H8.8c-4.8,0-8.8,3.9-8.8,8.8V385c0,9.3,3.7,18.2,10.2,24.8C16.8,416.3,25.7,420,35,420z M35,35
		c0-4.6,1.8-9.1,5.1-12.4c3.3-3.3,7.7-5.1,12.4-5.1h420c4.6,0,9.1,1.8,12.4,5.1S490,30.4,490,35v315H341.2c-2.3,0-4.5,0.9-6.2,2.6
		l-14.9,14.9H204.9l-14.9-14.9h0c-1.6-1.6-3.9-2.6-6.2-2.6H35L35,35z M17.5,367.5h162.6l14.9,14.9h0c1.6,1.6,3.9,2.6,6.2,2.6h122.5
		c2.3,0,4.5-0.9,6.2-2.6l14.9-14.9h162.6V385c0,4.6-1.8,9.1-5.1,12.4s-7.7,5.1-12.4,5.1H35c-4.6,0-9.1-1.8-12.4-5.1
		s-5.1-7.7-5.1-12.4L17.5,367.5z"/>
	<path class="st0" d="M463.8,315V52.5c0-2.3-0.9-4.5-2.6-6.2s-3.9-2.6-6.2-2.6H70c-4.8,0-8.8,3.9-8.8,8.8V315c0,2.3,0.9,4.5,2.6,6.2
		s3.9,2.6,6.2,2.6h385c2.3,0,4.5-0.9,6.2-2.6S463.8,317.3,463.8,315z M446.2,306.2H78.8v-245h367.5V306.2z"/>
	<path class="st0" d="M112.8,210l9.7,1.1v60.2c0,2.3,0.9,4.5,2.6,6.2s3.9,2.6,6.2,2.6h35c2.3,0,4.5-0.9,6.2-2.6s2.6-3.9,2.6-6.2
		v-54.4l95.3,10.6v0c0.3,0,0.6,0.1,1,0.1c2.3,0,4.5-0.9,6.2-2.6s2.6-3.9,2.6-6.2V96.3c0-2.5-1.1-4.9-2.9-6.5
		c-1.9-1.7-4.3-2.5-6.8-2.2l-157.5,17.5c-4.4,0.5-7.8,4.2-7.8,8.7v87.5C105,205.7,108.4,209.5,112.8,210L112.8,210z M157.5,262.5
		H140V213l17.5,1.9V262.5z M262.5,209l-105-11.7v-79.6l105-11.7V209z M122.5,121.6l17.5-1.9v75.7l-17.5-1.9V121.6z"/>
	<path class="st0" d="M341.2,87.5h17.5V105h-17.5V87.5z"/>
	<path class="st0" d="M376.2,87.5H420V105h-43.8V87.5z"/>
	<path class="st0" d="M306.2,122.5H420V140H306.2V122.5z"/>
	<path class="st0" d="M306.2,157.5H420V175H306.2V157.5z"/>
	<path class="st0" d="M306.2,192.5H420V210H306.2V192.5z"/>
	<path class="st0" d="M306.2,227.5H420V245H306.2V227.5z"/>
	<path class="st0" d="M306.2,262.5H385V280h-78.8V262.5z"/>
</g>
</svg>
