<?xml version="1.0" encoding="utf-8"?>
<!-- Generator: Adobe Illustrator 27.4.1, SVG Export Plug-In . SVG Version: 6.00 Build 0)  -->
<svg version="1.1" id="Livello_1" xmlns="http://www.w3.org/2000/svg" xmlns:xlink="http://www.w3.org/1999/xlink" x="0px" y="0px"
	 viewBox="0 0 556.2 560.1" style="enable-background:new 0 0 556.2 560.1;" xml:space="preserve">
<style type="text/css">
	.st0{fill:#342E96;}
</style>
<g>
	<path class="st0" d="M138.1,114h148.4c4.7,0,8.6-3.8,8.6-8.6s-3.8-8.6-8.6-8.6H138.1c-4.7,0-8.6,3.8-8.6,8.6S133.3,114,138.1,114z"
		/>
	<path class="st0" d="M138.1,173.4h148.4c4.7,0,8.6-3.8,8.6-8.6c0-4.7-3.8-8.6-8.6-8.6H138.1c-4.7,0-8.6,3.8-8.6,8.6
		C129.5,169.6,133.3,173.4,138.1,173.4z"/>
	<path class="st0" d="M138.1,232.5h97.4c4.7,0,8.4-3.8,8.4-8.4c0-4.7-3.8-8.4-8.4-8.4h-97.4c-4.7,0-8.4,3.8-8.4,8.4
		C129.6,228.8,133.4,232.5,138.1,232.5L138.1,232.5z"/>
	<path class="st0" d="M138.1,291.9h63.5c4.7,0,8.4-3.8,8.4-8.4s-3.8-8.4-8.4-8.4h-63.5c-4.7,0-8.4,3.8-8.4,8.4
		S133.4,291.9,138.1,291.9L138.1,291.9z"/>
	<path class="st0" d="M367,291.9h21.2c4.7,0,8.4-3.8,8.4-8.4s-3.8-8.4-8.4-8.4H367c-4.7,0-8.4,3.8-8.4,8.4S362.3,291.9,367,291.9z"
		/>
	<path class="st0" d="M388.1,334.5h-97.6c-4.5,0.2-8.1,3.9-8.1,8.4s3.6,8.3,8.1,8.4h97.6c4.5-0.2,8.1-3.9,8.1-8.4
		S392.7,334.6,388.1,334.5z"/>
	<path class="st0" d="M388.1,393.6H138.1c-4.6,0.2-8.2,4-8.2,8.6c0,4.6,3.6,8.4,8.2,8.6h250.1c4.6-0.2,8.2-4,8.2-8.6
		C396.4,397.6,392.7,393.8,388.1,393.6z"/>
	<path class="st0" d="M545.3,12.3c-7-7-16.5-10.9-26.4-10.9s-19.4,3.9-26.4,10.9l-56.4,56.1L370.4,2.7C369.7,2,368.9,1.5,368,1
		c-0.2,0-0.5-0.3-0.9-0.3c-3-1.6-301.9,0.1-305-0.5c-2.3,0-4.4,0.9-6,2.5c-1.6,1.6-2.5,3.8-2.4,6v37.5H8.6c-4.7-0.1-8.5,3.7-8.6,8.3
		v496.9c0.1,4.7,3.9,8.5,8.6,8.6h398.9c4.7-0.1,8.4-3.9,8.4-8.6v-37.8h45.3c2.2,0,4.4-0.8,5.9-2.4c1.6-1.6,2.5-3.7,2.4-5.9V140.7
		l1.3-1.3l74.5-74.5c7-7,10.9-16.4,10.9-26.3C556.2,28.7,552.3,19.3,545.3,12.3L545.3,12.3z M308.3,278.1l-28.8-29L424,104.7
		l28.8,29L308.3,278.1z M244.7,313.3c-3.3-6.5,11.2-35.8,23.4-51.6l27.8,27.7C279.9,301.8,250.8,316.1,244.7,313.3L244.7,313.3z
		 M372.9,29.1l51.3,51.4l-16.4,16.4h-35V29.1z M399,542.9H17V63.1h36.8v442.2c0,2.2,0.9,4.4,2.5,5.9c1.6,1.6,3.7,2.4,6,2.4H399
		L399,542.9z M452.6,496.8H70.7V17.1h285.2v88.3c0.1,4.7,3.9,8.5,8.6,8.6h26.4L261.5,243.1c-6.9,7.1-39,51.1-33.2,74.3l-17.1,17.1
		h-73l0,0c-4.5,0.2-8.1,3.9-8.1,8.4s3.6,8.3,8.1,8.4h76.6c1.1,0,2.2-0.3,3.3-0.8c1-0.4,2-1,2.8-1.8l19.5-19.6
		c24.8,5.5,66.7-26.6,74.1-33.2l138.1-138.1L452.6,496.8z M533.3,53.1l-68.5,68.5l-28.7-28.7l68.5-68.7c5.2-5.1,12.7-7.1,19.7-5.2
		c7,1.9,12.5,7.4,14.4,14.5C540.5,40.4,538.4,47.9,533.3,53.1L533.3,53.1z"/>
</g>
</svg>
