<?xml version="1.0" encoding="utf-8"?>
<!-- Generator: Adobe Illustrator 27.4.1, SVG Export Plug-In . SVG Version: 6.00 Build 0)  -->
<svg version="1.1" id="Livello_1" xmlns="http://www.w3.org/2000/svg" xmlns:xlink="http://www.w3.org/1999/xlink" x="0px" y="0px"
	 viewBox="0 0 350 525" style="enable-background:new 0 0 350 525;" xml:space="preserve">
<style type="text/css">
	.st0{fill:#342E96;}
</style>
<g>
	<path class="st0" d="M347.1,2.2c-1.8-1.7-4.3-2.5-6.8-2.2L7.8,35c-0.1,0-0.2,0.1-0.3,0.1c-0.2,0-0.4,0.1-0.6,0.1
		c-0.7,0.1-1.4,0.4-2,0.6c-0.2,0.1-0.4,0.2-0.6,0.3c-0.7,0.4-1.3,0.9-1.9,1.5c-0.2,0.2-0.4,0.4-0.6,0.7c-0.3,0.4-0.6,0.8-0.9,1.3
		C1,39.8,0.9,40,0.8,40.2c-0.2,0.4-0.3,0.8-0.4,1.2c-0.1,0.3-0.2,0.5-0.3,0.8c-0.1,0.3,0,0.6,0,0.9c0,0.1,0,0.1,0,0.2
		c0,0.2-0.1,0.3-0.1,0.5v385c0,3.6,2.2,6.9,5.6,8.2l227.5,87.5c1,0.4,2.1,0.6,3.1,0.6c1.7,0,3.5-0.5,5-1.5c2.4-1.6,3.8-4.3,3.8-7.2
		v-78.7h43.8c4.8,0,8.8-3.9,8.8-8.8v-58.9l44.2-2.4c4.6-0.2,8.3-4.1,8.3-8.7V8.8C350,6.3,348.9,3.9,347.1,2.2L347.1,2.2z M81.8,57.1
		l101.9,6.4v25L81.8,57.1z M227.5,503.5l-210-80.8V55.6l210,64.6V503.5z M280,420h-35V113.7c0-3.8-2.5-7.2-6.2-8.4l-37.6-11.6V64.5
		l78.8,4.9L280,420z M332.5,350.5l-35,1.9V61.2c0-4.6-3.6-8.4-8.2-8.7l-175.8-11l219-23.1L332.5,350.5z"/>
	<path class="st0" d="M204,149.2L46.5,96.7c-2.7-0.9-5.6-0.5-7.9,1.2c-2.3,1.6-3.6,4.3-3.6,7.1v52.5c0,3.8,2.4,7.1,6,8.3l157.5,52.5
		c0.9,0.3,1.8,0.4,2.8,0.4c1.8,0,3.6-0.6,5.1-1.7c2.3-1.6,3.6-4.3,3.6-7.1v-52.5C210,153.7,207.6,150.4,204,149.2L204,149.2z
		 M192.5,197.9l-140-46.7v-34.1l140,46.7V197.9z"/>
	<path class="st0" d="M195.3,254.2l-52.5-17.5c-2.7-0.9-5.6-0.4-7.9,1.2c-2.3,1.6-3.6,4.3-3.6,7.1v175c0,3.8,2.4,7.1,6,8.3
		l52.5,17.5c0.9,0.3,1.8,0.4,2.8,0.4c1.8,0,3.6-0.6,5.1-1.7c2.3-1.6,3.6-4.3,3.6-7.1v-175C201.3,258.7,198.8,255.4,195.3,254.2z
		 M183.7,425.4l-35-11.7V257.1l35,11.7V425.4z"/>
	<path class="st0" d="M107.8,245.5L55.3,228c-4.6-1.5-9.5,1-11.1,5.5c-1.5,4.6,0.9,9.5,5.5,11.1l52.5,17.5c0.9,0.3,1.9,0.5,2.8,0.5
		c3.7,0,7.1-2.3,8.3-6C114.8,251.9,112.4,247,107.8,245.5L107.8,245.5z"/>
	<path class="st0" d="M107.8,280.5L55.3,263c-4.6-1.5-9.5,0.9-11.1,5.5c-1.5,4.6,0.9,9.5,5.5,11.1l52.5,17.5
		c0.9,0.3,1.9,0.5,2.8,0.5c3.7,0,7.1-2.3,8.3-6C114.8,286.9,112.4,282,107.8,280.5L107.8,280.5z"/>
	<path class="st0" d="M107.8,315.5L55.3,298c-4.6-1.5-9.5,1-11.1,5.5c-1.5,4.6,0.9,9.5,5.5,11.1l52.5,17.5c0.9,0.3,1.9,0.5,2.8,0.5
		c3.7,0,7.1-2.3,8.3-6C114.8,321.9,112.4,317,107.8,315.5L107.8,315.5z"/>
	<path class="st0" d="M107.8,350.5L55.3,333c-4.6-1.5-9.5,1-11.1,5.5c-1.5,4.6,0.9,9.5,5.5,11.1l52.5,17.5c0.9,0.3,1.9,0.5,2.8,0.5
		c3.7,0,7.1-2.3,8.3-6C114.8,356.9,112.4,352,107.8,350.5L107.8,350.5z"/>
	<path class="st0" d="M107.8,385.5L55.3,368c-4.6-1.5-9.5,0.9-11.1,5.5c-1.5,4.6,0.9,9.5,5.5,11.1l52.5,17.5
		c0.9,0.3,1.9,0.5,2.8,0.5c3.7,0,7.1-2.3,8.3-6C114.8,391.9,112.4,387,107.8,385.5L107.8,385.5z"/>
</g>
</svg>
