<?xml version="1.0" encoding="utf-8"?>
<!-- Generator: Adobe Illustrator 27.4.1, SVG Export Plug-In . SVG Version: 6.00 Build 0)  -->
<svg version="1.1" id="Livello_1" xmlns="http://www.w3.org/2000/svg" xmlns:xlink="http://www.w3.org/1999/xlink" x="0px" y="0px"
	 viewBox="0 0 368 102" style="enable-background:new 0 0 368 102;" xml:space="preserve">
<style type="text/css">
	.st0{enable-background:new    ;}
	.st1{fill:#4F46E5;}
</style>
<g class="st0">
	<path class="st1" d="M12.9,45.5H3.6V0.2h9.3V45.5z"/>
</g>
<g class="st0">
	<path class="st1" d="M60.3,45.5H51L32.8,15.7v29.8h-9.3V0.2h9.3L51,30.1V0.2h9.3V45.5z"/>
</g>
<g class="st0">
	<path class="st1" d="M79.7,29.5v16h-9.3V0.2H88c3.4,0,6.4,0.6,9,1.9s4.6,3,6,5.3c1.4,2.3,2.1,4.9,2.1,7.8c0,4.4-1.5,7.9-4.6,10.5
		c-3,2.6-7.2,3.8-12.6,3.8H79.7z M79.7,22H88c2.5,0,4.3-0.6,5.6-1.7c1.3-1.2,1.9-2.8,1.9-5c0-2.2-0.7-4-2-5.4s-3.1-2.1-5.4-2.1h-8.6
		V22z"/>
</g>
<g class="st0">
	<path class="st1" d="M130.1,28.9h-7.4v16.6h-9.3V0.2h16.8c5.3,0,9.5,1.2,12.4,3.6c2.9,2.4,4.4,5.8,4.4,10.1c0,3.1-0.7,5.7-2,7.7
		s-3.4,3.7-6.1,4.9l9.8,18.5v0.4h-10L130.1,28.9z M122.7,21.4h7.5c2.3,0,4.2-0.6,5.4-1.8c1.3-1.2,1.9-2.8,1.9-4.9
		c0-2.1-0.6-3.8-1.8-5c-1.2-1.2-3.1-1.8-5.6-1.8h-7.5V21.4z"/>
</g>
<g class="st0">
	<path class="st1" d="M165.8,45.5h-9.3V0.2h9.3V45.5z"/>
</g>
<g class="st0">
	<path class="st1" d="M213.2,45.5h-9.3l-18.2-29.8v29.8h-9.3V0.2h9.3l18.2,29.9V0.2h9.3V45.5z"/>
</g>
<g class="st0">
	<path class="st1" d="M256.5,7.8h-13.9v37.7h-9.3V7.8h-13.7V0.2h36.9V7.8z"/>
</g>
<g class="st0">
	<path class="st1" d="M273.6,45.5h-9.3V0.2h9.3V45.5z"/>
</g>
<g class="st0">
	<path class="st1" d="M321,45.5h-9.3l-18.2-29.8v29.8h-9.3V0.2h9.3l18.2,29.9V0.2h9.3V45.5z"/>
</g>
<g class="st0">
	<path class="st1" d="M366.9,39.8c-1.7,2-4.1,3.6-7.1,4.7c-3.1,1.1-6.5,1.7-10.2,1.7c-3.9,0-7.4-0.9-10.3-2.6
		c-3-1.7-5.2-4.2-6.8-7.4c-1.6-3.3-2.4-7.1-2.5-11.5v-3.1c0-4.5,0.8-8.4,2.3-11.7c1.5-3.3,3.7-5.8,6.6-7.6c2.9-1.8,6.2-2.6,10.1-2.6
		c5.4,0,9.6,1.3,12.6,3.8s4.8,6.3,5.4,11.2h-9.1c-0.4-2.6-1.3-4.5-2.8-5.7s-3.4-1.8-5.9-1.8c-3.2,0-5.6,1.2-7.2,3.6
		c-1.7,2.4-2.5,5.9-2.5,10.6v2.9c0,4.7,0.9,8.3,2.7,10.8c1.8,2.4,4.4,3.6,7.9,3.6c3.5,0,6-0.7,7.5-2.2v-7.8h-8.5v-6.9h17.8V39.8z"/>
</g>
<g class="st0">
	<path class="st1" d="M15.6,94.3c0-1.1-0.4-1.9-1.1-2.5c-0.8-0.6-2.1-1.2-4.1-1.8c-2-0.6-3.5-1.3-4.7-1.9c-3.1-1.7-4.7-4-4.7-6.8
		c0-1.5,0.4-2.8,1.3-4c0.8-1.2,2-2.1,3.6-2.7s3.3-1,5.3-1c2,0,3.7,0.4,5.2,1.1c1.5,0.7,2.7,1.7,3.6,3c0.8,1.3,1.3,2.8,1.3,4.4h-5.7
		c0-1.3-0.4-2.2-1.2-2.9c-0.8-0.7-1.9-1-3.3-1c-1.4,0-2.5,0.3-3.2,0.9c-0.8,0.6-1.1,1.4-1.1,2.3c0,0.9,0.4,1.6,1.3,2.2
		c0.9,0.6,2.2,1.2,4,1.7c3.2,1,5.6,2.2,7,3.6s2.2,3.2,2.2,5.4c0,2.4-0.9,4.2-2.7,5.6c-1.8,1.4-4.2,2-7.3,2c-2.1,0-4-0.4-5.8-1.2
		c-1.7-0.8-3.1-1.8-4-3.2s-1.4-2.9-1.4-4.7h5.7c0,3,1.8,4.5,5.4,4.5c1.3,0,2.4-0.3,3.1-0.8S15.6,95.3,15.6,94.3z"/>
</g>
<g class="st0">
	<path class="st1" d="M42.8,89.6H32v7.4h12.7v4.5H26.3V74h18.4v4.6H32v6.5h10.9V89.6z"/>
</g>
<g class="st0">
	<path class="st1" d="M59.3,91.4h-4.5v10h-5.7V74h10.2c3.2,0,5.7,0.7,7.5,2.2c1.8,1.4,2.6,3.5,2.6,6.1c0,1.9-0.4,3.4-1.2,4.7
		s-2,2.2-3.7,3l5.9,11.2v0.3h-6.1L59.3,91.4z M54.8,86.8h4.6c1.4,0,2.5-0.4,3.3-1.1s1.2-1.7,1.2-3c0-1.3-0.4-2.3-1.1-3.1
		c-0.7-0.7-1.9-1.1-3.4-1.1h-4.5V86.8z"/>
</g>
<g class="st0">
	<path class="st1" d="M84.7,94.7L91,74h6.3l-9.6,27.4h-5.9L72.3,74h6.3L84.7,94.7z"/>
</g>
<g class="st0">
	<path class="st1" d="M107,101.5h-5.7V74h5.7V101.5z"/>
</g>
<g class="st0">
	<path class="st1" d="M119.4,96.9h13.8v4.5h-20.9v-3.3l13.6-19.5h-13.6V74h20.6v3.2L119.4,96.9z"/>
</g>
<g class="st0">
	<path class="st1" d="M144,101.5h-5.7V74h5.7V101.5z"/>
</g>
<g class="st0">
	<path class="st1" d="M177.7,89.6h-10.9v7.4h12.7v4.5h-18.4V74h18.4v4.6h-12.7v6.5h10.9V89.6z"/>
</g>
<g class="st0">
	<path class="st1" d="M184,101.5V74h8.4c2.4,0,4.6,0.5,6.5,1.6c1.9,1.1,3.4,2.6,4.5,4.6c1.1,2,1.6,4.3,1.6,6.8v1.3
		c0,2.6-0.5,4.8-1.6,6.8c-1,2-2.5,3.5-4.4,4.6c-1.9,1.1-4.1,1.6-6.5,1.7H184z M189.7,78.6v18.3h2.7c2.2,0,3.9-0.7,5.1-2.2
		c1.2-1.4,1.8-3.5,1.8-6.2v-1.5c0-2.8-0.6-4.9-1.7-6.3s-2.8-2.2-5.1-2.2H189.7z"/>
</g>
<g class="st0">
	<path class="st1" d="M216.3,101.5h-5.7V74h5.7V101.5z"/>
</g>
<g class="st0">
	<path class="st1" d="M242.8,78.6h-8.4v22.9h-5.7V78.6h-8.3V74h22.4V78.6z"/>
</g>
<g class="st0">
	<path class="st1" d="M269.2,88.4c0,2.7-0.5,5.1-1.4,7.1c-1,2-2.3,3.6-4.1,4.7c-1.8,1.1-3.8,1.7-6.1,1.7c-2.3,0-4.3-0.5-6.1-1.6
		c-1.8-1.1-3.2-2.7-4.1-4.7c-1-2-1.5-4.4-1.5-7v-1.4c0-2.7,0.5-5.1,1.5-7.1c1-2.1,2.3-3.6,4.1-4.7c1.8-1.1,3.8-1.6,6.1-1.6
		s4.3,0.6,6.1,1.6c1.8,1.1,3.2,2.7,4.1,4.7c1,2.1,1.5,4.4,1.5,7.1V88.4z M263.5,87.1c0-2.9-0.5-5.1-1.5-6.6c-1-1.5-2.5-2.2-4.4-2.2
		c-1.9,0-3.4,0.7-4.4,2.2c-1,1.5-1.6,3.6-1.6,6.5v1.3c0,2.8,0.5,5,1.5,6.5c1,1.5,2.5,2.3,4.4,2.3c1.9,0,3.4-0.7,4.4-2.2
		c1-1.5,1.5-3.7,1.5-6.5V87.1z"/>
</g>
<g class="st0">
	<path class="st1" d="M284.6,91.4h-4.5v10h-5.7V74h10.2c3.2,0,5.7,0.7,7.5,2.2c1.8,1.4,2.6,3.5,2.6,6.1c0,1.9-0.4,3.4-1.2,4.7
		s-2,2.2-3.7,3l5.9,11.2v0.3h-6.1L284.6,91.4z M280.1,86.8h4.6c1.4,0,2.5-0.4,3.3-1.1s1.2-1.7,1.2-3c0-1.3-0.4-2.3-1.1-3.1
		c-0.7-0.7-1.9-1.1-3.4-1.1h-4.5V86.8z"/>
</g>
<g class="st0">
	<path class="st1" d="M306.3,101.5h-5.7V74h5.7V101.5z"/>
</g>
<g class="st0">
	<path class="st1" d="M328.5,95.8h-9.9l-1.9,5.7h-6L320.9,74h5.2l10.3,27.4h-6L328.5,95.8z M320.1,91.2h6.9L323.5,81L320.1,91.2z"/>
</g>
<g class="st0">
	<path class="st1" d="M345.8,96.9h12v4.5h-17.7V74h5.7V96.9z"/>
</g>
<g class="st0">
	<path class="st1" d="M368.2,101.5h-5.7V74h5.7V101.5z"/>
</g>
</svg>
