<?xml version="1.0" encoding="utf-8"?>
<!-- Generator: Adobe Illustrator 27.4.1, SVG Export Plug-In . SVG Version: 6.00 Build 0)  -->
<svg version="1.1" id="Livello_1" xmlns="http://www.w3.org/2000/svg" xmlns:xlink="http://www.w3.org/1999/xlink" x="0px" y="0px"
	 viewBox="0 0 397.4 460.4" style="enable-background:new 0 0 397.4 460.4;" xml:space="preserve">
<style type="text/css">
	.st0{fill:#342E96;}
</style>
<g>
	<path class="st0" d="M51.6,66.5h114v11.6H51.6L51.6,66.5z"/>
	<path class="st0" d="M51.6,111.6h227.9v11.6H51.6V111.6z"/>
	<path class="st0" d="M51.6,156.8h227.9v11.6H51.6V156.8z"/>
	<path class="st0" d="M51.6,201.9h135.9v11.6H51.6V201.9z"/>
	<path class="st0" d="M51.6,247h135.9v11.6H51.6V247z"/>
	<path class="st0" d="M51.6,247h139.7v11.6H51.6L51.6,247z"/>
	<path class="st0" d="M282.3,223.2h-97.6v-31.2h97.6V223.2z M190.3,217.7h86.4v-20h-86.4V217.7z"/>
	<path class="st0" d="M282.3,268.4h-97.6v-31.2h97.6V268.4z M190.3,262.8h86.4v-20h-86.4V262.8z"/>
	<path class="st0" d="M51.6,292.1h227.9v11.6H51.6V292.1z"/>
	<path class="st0" d="M51.6,337.2h227.9v11.6H51.6V337.2z"/>
	<path class="st0" d="M128.5,382.3h76.9v11.6h-76.9V382.3z"/>
	<path class="st0" d="M292.2,0H34.6C16.1,0,1.1,15.1,1.1,33.5v393.3c0,18.5,15.1,33.5,33.6,33.5h257.6c18.5,0,33.5-15.1,33.5-33.5
		V33.5C325.8,15.1,310.7,0,292.2,0L292.2,0z M76.2,448.9H34.6c-12.1,0-22-9.9-22-22V33.5c0-3,0.6-5.9,1.7-8.5
		c3.3-7.9,11.2-13.4,20.2-13.4h257.6c12.1,0,22,9.9,22,22v393.3c0,3-0.6,5.9-1.7,8.5c-3.3,7.9-11.2,13.4-20.2,13.4L76.2,448.9
		L76.2,448.9z"/>
	<path class="st0" d="M315.1,168.6c-34.7-35.6-91.8-36.4-127.4-1.6c-35.6,34.7-36.3,91.8-1.6,127.4c34.7,35.6,91.8,36.3,127.4,1.6
		C349.1,261.2,349.9,204.2,315.1,168.6L315.1,168.6z M207.1,273.9c-23.4-24-22.9-62.5,1.1-85.9c24-23.4,62.5-22.9,85.9,1.1
		c23.4,24,22.9,62.5-1.1,85.9C269,298.4,230.6,297.9,207.1,273.9L207.1,273.9z"/>
	<path class="st0" d="M311.1,263.5l86.2,88.5l-31.6,30.9l-86.2-88.5L311.1,263.5z"/>
</g>
</svg>
