<?xml version="1.0" encoding="utf-8"?>
<!-- Generator: Adobe Illustrator 27.4.1, SVG Export Plug-In . SVG Version: 6.00 Build 0)  -->
<svg version="1.1" id="Livello_1" xmlns="http://www.w3.org/2000/svg" xmlns:xlink="http://www.w3.org/1999/xlink" x="0px" y="0px"
	 viewBox="0 0 543.1 517" style="enable-background:new 0 0 543.1 517;" xml:space="preserve">
<style type="text/css">
	.st0{fill:#342E96;}
</style>
<g>
	<path class="st0" d="M118.8,71h106.7l36.4-37.9c2.7-3.2,6.7-5.2,11.1-5.2h189.3c8,0,14.5,6.5,14.5,14.5V451c0,8-6.5,14.5-14.5,14.5
		H322.6v28.6c0,8-6.5,14.5-14.5,14.5H14.5c-8,0-14.5-6.5-14.5-14.5v-300c0-4.7,1.8-7.6,4.8-10.8L107.6,76.2
		C110.3,73,114.3,71,118.8,71L118.8,71z M543.1,485.1l-55.1-31.8v15.9l-110.3,15.9l110.3,15.9V517L543.1,485.1z M42.8,31.8L97.9,0
		v15.9l110.3,15.9L97.9,47.7v15.9L42.8,31.8L42.8,31.8z M287.5,71h20.6c8,0,14.5,6.5,14.5,14.5v88.6l31.2-81.4h22.5L430,224.5h-25.7
		l-14.5-38.1h-48.5l-13.6,38.1h-5v51.4h85.5v25.4h-85.5v29.6h85.5v25.4h-85.5v29.6h85.5v25.4h-85.5v25.3h125.2V56.9H287.5L287.5,71
		L287.5,71z M348.4,166.7h33.8c-5.9-15.4-12-30.8-17.2-46.4C360.6,136.1,354.3,151.4,348.4,166.7z M68.7,319h185.2v25.4H68.7
		L68.7,319z M246.3,169.8c-1.3,24.8-10.4,49-28,66.8c11.6,12.3,24.3,17.7,40.7,20.5l-3.6,20.5c-21.5-3.8-38.5-11.7-53.4-28
		c-11.1,6.8-21.7,10.1-34.5,12.3l-3.6-20.5c9.6-1.7,17.3-3.8,25.9-8.8c-9.5-16.9-12.9-34.1-13.4-53.3c6.9-0.2,13.8-0.3,20.7-0.5
		c0.3,14.5,2.5,27.3,9,40.3c12-13.6,18.2-31.4,19.3-49.3h-63.8v-21h37.1v-13h25.4v13h37.1v21L246.3,169.8z M68.7,428.9h185.2v25.4
		H68.7L68.7,428.9z M68.7,374h185.2v25.4H68.7L68.7,374z M48.5,179.5h55.7v-58L48.5,179.5z M293.6,100H133.3v94.1
		c0,8-6.5,14.5-14.5,14.5H29v271h264.5L293.6,100z"/>
</g>
</svg>
