<?xml version="1.0" encoding="utf-8"?>
<!-- Generator: Adobe Illustrator 27.4.1, SVG Export Plug-In . SVG Version: 6.00 Build 0)  -->
<svg version="1.1" id="Livello_1" xmlns="http://www.w3.org/2000/svg" xmlns:xlink="http://www.w3.org/1999/xlink" x="0px" y="0px"
	 viewBox="0 0 525 525" style="enable-background:new 0 0 525 525;" xml:space="preserve">
<style type="text/css">
	.st0{fill:#342E96;}
</style>
<g>
	<path class="st0" d="M525,315V159.7c0-5.2-2.1-10.2-5.8-13.9c-3.7-3.7-8.7-5.8-13.9-5.8H490V8.8c0-2.3-0.9-4.5-2.6-6.2
		S483.6,0,481.2,0H43.8C38.9,0,35,3.9,35,8.8v87.5h17.5V70h420v323.8h-420v-280H35V140H19.7c-5.2,0-10.2,2.1-13.9,5.8
		c-3.7,3.7-5.8,8.7-5.8,13.9v266.9c0,5.2,2.1,10.2,5.8,13.9c3.7,3.7,8.7,5.8,13.9,5.8h199.1v7.2c0,5.7-2,11.2-5.7,15.6
		c-3.7,4.3-8.8,7.2-14.4,8.2l-6.8,1.1h0c-7.2,1.2-13.7,4.9-18.4,10.4s-7.3,12.6-7.2,19.8v7.7c0,2.3,0.9,4.5,2.6,6.2s3.9,2.6,6.2,2.6
		h192.5c2.3,0,4.5-0.9,6.2-2.6s2.6-3.9,2.6-6.2v-7.7c0-7.3-2.5-14.3-7.2-19.8c-4.7-5.5-11.2-9.2-18.4-10.4l-6.8-1.1v0
		c-5.6-0.9-10.7-3.8-14.4-8.2c-3.7-4.3-5.7-9.9-5.7-15.6v-7.2h181.6c5.2,0,10.2-2.1,13.9-5.8c3.7-3.7,5.8-8.7,5.8-13.9v-94.1h-17.5
		v35H490v-210h15.3c0.6,0,1.1,0.2,1.5,0.6s0.6,1,0.6,1.5V315L525,315z M52.5,52.5v-35h420v35H52.5z M19.7,157.5H35v210H17.5V159.7
		C17.5,158.5,18.5,157.5,19.7,157.5L19.7,157.5z M341,494.4l6.8,1.1h0c6,1,10.5,5.9,10.9,11.9H183.8c0.5-6,5-10.9,10.9-11.9l6.8-1.1
		h0c9.7-1.6,18.5-6.6,24.9-14.1c6.4-7.5,9.8-17,9.8-26.9v-7.2h70v7.2c0,9.8,3.5,19.4,9.8,26.9C322.4,487.9,331.3,492.9,341,494.4
		L341,494.4z M507.5,385v41.6c0,0.6-0.2,1.1-0.6,1.5s-1,0.6-1.5,0.6H19.7c-1.2,0-2.2-1-2.2-2.2V385H35v17.5c0,2.3,0.9,4.5,2.6,6.2
		s3.9,2.6,6.2,2.6h437.5c2.3,0,4.5-0.9,6.2-2.6s2.6-3.9,2.6-6.2V385L507.5,385z"/>
	<path class="st0" d="M70,26.2h17.5v17.5H70V26.2z"/>
	<path class="st0" d="M105,26.2h17.5v17.5H105V26.2z"/>
	<path class="st0" d="M140,26.2h17.5v17.5H140V26.2z"/>
	<path class="st0" d="M437.5,26.2H455v17.5h-17.5V26.2z"/>
	<path class="st0" d="M157.5,323.7v35c0,2.3,0.9,4.5,2.6,6.2s3.9,2.6,6.2,2.6h192.5c2.3,0,4.5-0.9,6.2-2.6s2.6-3.9,2.6-6.2v-35
		c0-2.3-0.9-4.5-2.6-6.2s-3.9-2.6-6.2-2.6H166.2C161.4,315,157.5,318.9,157.5,323.7z M175,332.5h175V350H175V332.5z"/>
	<path class="st0" d="M78.7,280c0,2.3,0.9,4.5,2.6,6.2s3.9,2.6,6.2,2.6H175c2.3,0,4.5-0.9,6.2-2.6s2.6-3.9,2.6-6.2V175
		c0-2.3-0.9-4.5-2.6-6.2s-3.9-2.6-6.2-2.6H87.5c-4.8,0-8.8,3.9-8.8,8.8V280z M142.6,227.5l23.6-28.3v56.7L142.6,227.5z M156.3,271.2
		h-50.1l25.1-30.1L156.3,271.2z M131.3,213.8l-25.1-30.1h50.1L131.3,213.8z M119.9,227.5l-23.6,28.3v-56.7L119.9,227.5z"/>
	<path class="st0" d="M78.7,131.2h52.5v17.5H78.7V131.2z"/>
	<path class="st0" d="M148.7,131.2h35v17.5h-35V131.2z"/>
	<path class="st0" d="M78.7,96.2h105v17.5h-105V96.2z"/>
	<path class="st0" d="M210,280c0,2.3,0.9,4.5,2.6,6.2s3.9,2.6,6.2,2.6h87.5c2.3,0,4.5-0.9,6.2-2.6s2.6-3.9,2.6-6.2V175
		c0-2.3-0.9-4.5-2.6-6.2s-3.9-2.6-6.2-2.6h-87.5c-4.8,0-8.8,3.9-8.8,8.8V280z M273.9,227.5l23.6-28.3v56.7L273.9,227.5z
		 M287.6,271.2h-50.1l25.1-30.1L287.6,271.2z M262.5,213.8l-25.1-30.1h50.1L262.5,213.8z M251.1,227.5l-23.6,28.3v-56.7L251.1,227.5
		z"/>
	<path class="st0" d="M210,131.2h52.5v17.5H210V131.2z"/>
	<path class="st0" d="M280,131.2h35v17.5h-35V131.2z"/>
	<path class="st0" d="M210,96.2h105v17.5H210V96.2z"/>
	<path class="st0" d="M341.2,280c0,2.3,0.9,4.5,2.6,6.2s3.9,2.6,6.2,2.6h87.5c2.3,0,4.5-0.9,6.2-2.6s2.6-3.9,2.6-6.2V175
		c0-2.3-0.9-4.5-2.6-6.2s-3.9-2.6-6.2-2.6H350c-4.8,0-8.8,3.9-8.8,8.8V280z M405.1,227.5l23.6-28.3v56.7L405.1,227.5z M418.8,271.2
		h-50.1l25.1-30.1L418.8,271.2z M393.8,213.8l-25.1-30.1h50.1L393.8,213.8z M382.4,227.5l-23.6,28.3v-56.7L382.4,227.5z"/>
	<path class="st0" d="M341.2,131.2h52.5v17.5h-52.5V131.2z"/>
	<path class="st0" d="M411.2,131.2h35v17.5h-35V131.2z"/>
	<path class="st0" d="M341.2,96.2h105v17.5h-105V96.2z"/>
	<path class="st0" d="M411.2,350h35v17.5h-35V350z"/>
	<path class="st0" d="M385,315h61.2v17.5H385V315z"/>
	<path class="st0" d="M78.7,350h35v17.5h-35V350z"/>
	<path class="st0" d="M78.7,315H140v17.5H78.7V315z"/>
</g>
</svg>
